<?xml version="1.0" standalone="no"?>
<!DOCTYPE svg PUBLIC "-//W3C//DTD SVG 20010904//EN"
 "http://www.w3.org/TR/2001/REC-SVG-20010904/DTD/svg10.dtd">
<svg version="1.0" xmlns="http://www.w3.org/2000/svg"
 width="1930.000000pt" height="1967.000000pt" viewBox="0 0 1930.000000 1967.000000"
 preserveAspectRatio="xMidYMid meet">

<g transform="translate(0.000000,1967.000000) scale(0.100000,-0.100000)"
fill="#000000" stroke="none">
<path d="M2865 19388 c-21 -52 -121 -374 -166 -535 -131 -475 -197 -871 -206
-1238 -9 -348 4 -429 143 -862 136 -427 167 -558 195 -818 26 -241 10 -878
-37 -1465 -22 -272 -29 -832 -15 -1060 19 -296 55 -545 112 -775 58 -237 199
-567 244 -572 15 -2 39 25 102 121 230 345 555 683 815 849 268 170 492 218
781 165 168 -31 424 -33 477 -4 46 25 59 44 60 86 0 70 -36 119 -138 186 -119
79 -238 172 -258 202 -40 61 16 71 217 38 367 -61 509 -16 509 162 0 32 -7 81
-15 108 -12 41 -24 57 -62 85 -253 181 -699 596 -979 912 -580 651 -977 1310
-1277 2117 -255 685 -417 1467 -442 2133 -4 84 -8 162 -11 175 -6 32 -33 27
-49 -10z"/>
<path d="M16406 19398 c-3 -13 -7 -91 -11 -175 -25 -666 -187 -1448 -442
-2133 -300 -807 -697 -1466 -1277 -2117 -280 -316 -726 -731 -979 -912 -38
-28 -50 -44 -62 -85 -8 -27 -15 -76 -15 -108 0 -178 142 -223 509 -162 201 33
257 23 217 -38 -20 -30 -139 -123 -258 -202 -102 -67 -138 -116 -138 -186 1
-42 14 -61 60 -86 53 -29 309 -27 477 4 251 46 428 20 653 -93 172 -86 305
-188 501 -384 169 -169 312 -342 442 -537 63 -96 87 -123 102 -121 45 5 186
335 244 572 57 230 93 479 112 775 14 228 7 788 -15 1060 -47 587 -63 1224
-37 1465 28 260 59 391 195 818 130 406 146 492 146 777 0 328 -50 685 -155
1115 -85 345 -220 768 -247 773 -11 2 -19 -5 -22 -20z"/>
<path d="M6680 10884 c-328 -30 -716 -142 -1150 -332 -169 -74 -235 -109
-1155 -622 -462 -257 -1063 -591 -1335 -742 -272 -151 -688 -383 -925 -515
-236 -131 -492 -273 -567 -314 -76 -40 -138 -80 -138 -86 0 -29 20 -21 335
132 121 59 265 129 320 155 55 26 190 92 300 145 110 54 236 114 280 135 44
21 161 77 260 125 99 48 234 113 300 145 66 32 188 90 270 130 83 40 209 101
280 135 72 34 195 94 275 132 152 74 842 406 1164 562 l189 91 136 -20 c186
-26 468 -65 630 -86 73 -9 137 -22 142 -28 5 -6 44 -69 87 -141 123 -206 252
-394 293 -426 86 -68 218 -115 404 -145 225 -35 735 -28 1069 15 l138 17 8
-20 c40 -101 333 -836 340 -853 8 -19 40 -34 40 -18 0 5 -129 654 -275 1390
-80 403 -85 421 -112 443 -61 50 -264 183 -373 244 -311 176 -563 275 -835
328 -107 20 -302 32 -395 24z"/>
<path d="M12390 10884 c-318 -40 -623 -150 -980 -352 -109 -61 -312 -194 -373
-244 -27 -22 -32 -40 -112 -443 -146 -736 -275 -1385 -275 -1390 0 -16 32 -1
40 18 7 17 300 752 340 853 l8 20 138 -17 c334 -43 844 -50 1069 -15 186 30
318 77 404 145 41 32 170 220 293 426 43 72 82 135 87 141 5 6 69 19 142 28
162 21 444 60 630 86 l136 20 189 -91 c322 -156 1012 -488 1164 -562 80 -38
204 -98 275 -132 72 -34 198 -95 280 -135 83 -40 204 -98 270 -130 66 -32 201
-97 300 -145 99 -48 216 -104 260 -125 44 -21 170 -81 280 -135 110 -53 245
-119 300 -145 55 -26 199 -96 320 -155 315 -153 335 -161 335 -132 0 6 -62 46
-138 86 -75 41 -330 183 -567 314 -236 132 -653 364 -925 515 -272 151 -873
485 -1335 742 -920 513 -986 548 -1155 622 -368 161 -688 262 -973 308 -124
20 -356 33 -427 24z"/>
<path d="M6 6481 c5 -5 128 -66 274 -136 1267 -609 2429 -1234 2951 -1587 250
-169 409 -317 409 -382 0 -31 -83 -102 -168 -145 -204 -102 -542 -165 -967
-179 -190 -7 -199 -8 -175 -23 39 -26 7202 -3965 7273 -4000 63 -31 64 -32 83
-13 11 11 1650 916 3644 2013 1994 1097 3631 1999 3638 2006 10 9 -31 13 -190
18 -523 15 -929 113 -1084 262 -40 38 -45 48 -40 71 46 183 722 616 2001 1282
281 146 1099 554 1424 711 117 56 211 104 209 106 -2 2 -46 -3 -98 -10 -122
-18 -408 -50 -625 -70 -790 -72 -1775 -72 -2547 0 l-156 15 -349 -209 c-749
-447 -1448 -838 -1939 -1084 -366 -183 -603 -284 -793 -337 -58 -16 -170 -47
-249 -68 -79 -22 -145 -42 -147 -44 -3 -2 -73 -554 -157 -1226 -84 -672 -155
-1222 -158 -1222 -3 0 -69 516 -148 1148 l-143 1147 -306 763 c-252 629 -309
762 -324 762 -15 0 -19 -8 -19 -32 -2 -78 -478 -4952 -483 -4938 -4 12 -348
3566 -347 3593 1 42 -72 -64 -331 -478 -166 -267 -305 -485 -309 -485 -4 0
-143 218 -309 485 -167 267 -310 485 -317 485 -8 0 -14 -10 -14 -22 -2 -76
-348 -3590 -353 -3578 -5 14 -478 4916 -477 4953 0 10 -7 17 -19 17 -15 0 -72
-133 -324 -762 l-306 -763 -143 -1147 c-79 -632 -145 -1148 -148 -1148 -3 0
-74 550 -158 1222 -84 672 -154 1224 -157 1226 -2 2 -68 22 -147 44 -79 21
-191 52 -249 68 -190 53 -427 154 -793 337 -491 246 -1190 637 -1939 1084
l-349 209 -156 -15 c-528 -49 -1354 -69 -1872 -45 -418 19 -910 62 -1265 110
-174 23 -172 23 -159 11z"/>
</g>
</svg>
