<?xml version="1.0" standalone="no"?>
<!DOCTYPE svg PUBLIC "-//W3C//DTD SVG 20010904//EN"
 "http://www.w3.org/TR/2001/REC-SVG-20010904/DTD/svg10.dtd">
<svg version="1.0" xmlns="http://www.w3.org/2000/svg"
 width="1930.000000pt" height="1967.000000pt" viewBox="0 0 1930.000000 1967.000000"
 preserveAspectRatio="xMidYMid meet">

<g transform="translate(0.000000,1967.000000) scale(0.100000,-0.100000)"
fill="#000000" stroke="none">
<path d="M2698 19563 c-249 -531 -420 -1147 -483 -1743 -22 -210 -30 -542 -16
-682 18 -184 48 -283 150 -495 49 -104 101 -227 115 -276 97 -335 108 -799 41
-1672 -39 -503 -45 -659 -45 -1042 0 -424 10 -605 51 -883 54 -363 153 -638
279 -774 l56 -61 -1337 -1920 -1337 -1920 56 -2 c515 -21 795 -69 1007 -173
182 -88 265 -188 273 -330 7 -129 -41 -249 -175 -440 -90 -126 -302 -339 -418
-417 -246 -166 -494 -244 -778 -245 -88 0 -135 -4 -129 -10 32 -32 923 -116
1462 -138 529 -21 1329 -2 1830 45 l144 13 331 -197 c886 -531 1705 -983 2191
-1209 272 -127 431 -186 698 -259 230 -63 250 -71 257 -93 4 -14 76 -580 161
-1257 127 -1026 155 -1233 168 -1233 13 0 40 199 163 1181 l147 1181 304 755
c284 708 303 752 309 711 2 -24 112 -1160 243 -2525 202 -2094 241 -2483 254
-2483 13 0 42 284 188 1808 95 994 176 1820 179 1835 4 25 43 -33 304 -450
237 -380 303 -478 319 -478 16 0 82 98 319 478 261 417 300 475 304 450 3 -15
84 -841 179 -1835 146 -1524 175 -1808 188 -1808 13 0 52 389 254 2483 131
1365 241 2502 244 2525 4 41 26 -9 308 -711 l304 -755 147 -1181 c123 -982
150 -1181 163 -1181 13 0 41 207 168 1233 85 677 157 1243 161 1257 7 22 27
30 257 93 267 73 426 132 698 259 486 226 1305 678 2191 1209 l331 197 144
-13 c501 -47 1301 -66 1830 -45 526 21 1333 96 1423 132 46 18 30 24 -45 17
-199 -20 -469 37 -683 144 -261 130 -554 421 -694 687 -56 108 -74 178 -69
270 8 142 91 242 272 330 214 104 493 152 1008 173 l56 2 -1337 1920 -1337
1920 56 61 c122 132 219 394 274 744 42 261 56 501 56 917 0 379 -7 537 -45
1038 -67 873 -56 1337 41 1672 14 49 66 172 115 276 140 290 167 435 156 822
-21 704 -200 1448 -505 2098 -47 99 -53 107 -79 107 -15 -1 -322 -49 -680
-109 l-653 -107 -242 -240 c-134 -132 -1073 -1061 -2087 -2064 -1039 -1028
-1853 -1827 -1865 -1829 -11 -2 -318 18 -681 45 l-661 47 -655 -47 c-360 -26
-667 -46 -681 -44 -18 2 -536 508 -1869 1828 -1014 1003 -1953 1932 -2087
2064 l-242 240 -653 107 c-358 60 -665 108 -680 109 -26 0 -32 -8 -79 -107z
m242 -788 c116 -1007 462 -2037 953 -2840 292 -479 638 -908 1078 -1340 218
-214 371 -349 565 -501 111 -86 123 -98 133 -138 29 -117 5 -185 -82 -230 -49
-25 -66 -28 -144 -28 -48 0 -140 9 -203 20 -152 27 -229 34 -265 24 -25 -7
-30 -14 -33 -44 -3 -32 3 -40 61 -94 36 -33 116 -93 179 -134 116 -76 153
-114 165 -170 21 -107 -151 -137 -486 -84 -287 45 -456 25 -677 -81 -314 -151
-691 -514 -962 -927 -42 -64 -80 -117 -84 -117 -12 -1 -79 128 -124 238 -110
271 -183 633 -215 1059 -13 183 -7 841 10 1027 34 375 45 639 46 1070 0 465
-3 515 -46 743 -24 126 -46 201 -160 560 -123 385 -130 417 -136 692 -4 190
-2 255 16 415 34 298 115 687 212 1025 35 122 139 440 148 455 3 6 11 -87 18
-205 7 -118 22 -296 33 -395z m13553 420 c152 -466 253 -909 298 -1300 18
-160 20 -225 16 -415 -6 -275 -13 -307 -136 -692 -114 -359 -136 -434 -160
-560 -43 -228 -46 -278 -46 -743 1 -431 12 -695 46 -1070 17 -186 23 -844 10
-1027 -32 -426 -105 -788 -215 -1059 -45 -110 -112 -239 -124 -238 -4 0 -42
53 -84 117 -271 413 -648 776 -962 927 -221 106 -390 126 -677 81 -335 -53
-507 -23 -486 84 12 56 49 94 165 170 63 41 143 101 179 134 58 54 64 62 61
94 -3 30 -8 37 -33 44 -36 10 -113 3 -265 -24 -63 -11 -155 -20 -203 -20 -78
0 -95 3 -144 28 -87 45 -111 113 -82 230 10 40 22 52 133 138 365 285 797 710
1109 1091 529 646 892 1311 1163 2130 202 610 321 1229 356 1847 7 120 15 215
19 210 4 -4 32 -83 62 -177z m-9398 -8359 c237 -51 516 -161 760 -298 103 -59
390 -246 421 -276 15 -15 28 -59 53 -188 18 -93 93 -472 167 -843 74 -371 133
-676 131 -677 -1 -1 -74 176 -161 394 -87 218 -164 403 -170 410 -10 10 -24
10 -62 2 -70 -14 -316 -37 -546 -51 -151 -9 -237 -9 -363 0 -342 25 -525 74
-641 175 -43 37 -187 246 -301 439 -36 62 -69 115 -72 119 -7 8 -162 32 -466
73 -104 14 -254 35 -331 46 l-142 20 -133 -64 c-74 -36 -200 -97 -281 -136
-331 -160 -445 -214 -580 -280 -79 -37 -267 -128 -418 -201 -258 -125 -373
-180 -665 -320 -66 -32 -201 -97 -300 -145 -99 -48 -234 -113 -300 -145 -178
-86 -396 -191 -562 -271 -275 -133 -398 -190 -388 -181 6 5 264 150 575 322
311 172 833 462 1160 645 327 182 712 396 855 475 143 79 409 227 590 328 382
214 524 286 725 370 379 157 691 246 1010 286 93 11 318 -3 435 -28z m5720 4
c265 -46 532 -128 855 -262 201 -84 343 -156 725 -370 182 -101 447 -249 590
-328 143 -79 528 -293 855 -475 327 -183 849 -473 1160 -645 311 -172 570
-317 575 -322 10 -9 -114 49 -385 180 -158 76 -376 181 -565 272 -66 32 -201
97 -300 145 -99 48 -234 113 -300 145 -292 140 -407 195 -665 320 -151 73
-338 163 -415 200 -142 68 -313 151 -582 281 -82 39 -208 100 -282 136 l-133
64 -142 -20 c-77 -11 -226 -32 -331 -46 -304 -41 -459 -65 -466 -73 -3 -4 -36
-57 -72 -119 -114 -193 -258 -402 -301 -439 -116 -101 -299 -150 -641 -175
-126 -9 -212 -9 -363 0 -230 14 -476 37 -546 51 -38 8 -52 8 -62 -2 -6 -7 -83
-192 -170 -410 -87 -218 -160 -395 -161 -394 -2 1 57 306 131 677 74 371 149
750 167 843 25 129 38 173 53 188 31 30 318 217 421 276 293 166 605 277 910
326 67 10 325 -3 440 -24z"/>
</g>
</svg>
